<?xml version="1.0" encoding="UTF-8"?>
<!DOCTYPE svg PUBLIC "-//W3C//DTD SVG 1.1//EN" "http://www.w3.org/Graphics/SVG/1.1/DTD/svg11.dtd">
<!-- Creator: CorelDRAW 2021 (64-Bit) -->
<svg xmlns="http://www.w3.org/2000/svg" xml:space="preserve" width="10.8989mm" height="13.3902mm" version="1.1" style="shape-rendering:geometricPrecision; text-rendering:geometricPrecision; image-rendering:optimizeQuality; fill-rule:evenodd; clip-rule:evenodd"
viewBox="0 0 617.79 759.01"
 xmlns:xlink="http://www.w3.org/1999/xlink"
 xmlns:xodm="http://www.corel.com/coreldraw/odm/2003">
 <defs>
  <style type="text/css">
   <![CDATA[
    .fil1 {fill:#3B8B69}
    .fil3 {fill:#4E5DD9}
    .fil5 {fill:#E4442E}
    .fil4 {fill:#EDD947}
    .fil2 {fill:white}
    .fil0 {fill:#E4442E;fill-rule:nonzero}
   ]]>
  </style>
 </defs>
 <g id="Capa_x0020_1">
  <metadata id="CorelCorpID_0Corel-Layer"/>
  <path class="fil0" d="M318.19 1.69c-5.99,-2.25 -12.6,-2.25 -18.59,0l-282.42 105.9c-10.34,3.88 -17.18,13.76 -17.18,24.79l0 300.07c0,63.89 30.08,124.05 81.19,162.39l211.82 158.86c9.42,7.06 22.36,7.06 31.77,0l211.82 -158.86c51.11,-38.34 81.19,-98.49 81.19,-162.39l0 -300.07c0,-11.04 -6.85,-20.92 -17.18,-24.79l-282.42 -105.9z"/>
  <path class="fil1" d="M308.89 0l0 759c-5.59,0 -11.18,-1.76 -15.88,-5.29l-211.82 -158.86c-51.11,-38.34 -81.19,-98.49 -81.19,-162.39l0 -300.07c0,-11.04 6.84,-20.92 17.18,-24.79l282.42 -105.9c2.99,-1.13 6.14,-1.69 9.29,-1.69z"/>
  <path class="fil2" d="M299.6 1.69c5.99,-2.25 12.6,-2.25 18.59,0l282.42 105.9c10.33,3.88 17.18,13.76 17.18,24.79l0 300.07c0,63.89 -30.08,124.05 -81.19,162.39l-211.82 158.86c-9.42,7.06 -22.36,7.06 -31.77,0l-211.82 -158.86c-51.11,-38.34 -81.19,-98.49 -81.19,-162.39l0 -300.07c0,-11.04 6.84,-20.92 17.18,-24.79l282.42 -105.9zm-246.65 149.04l0 281.72c0,47.22 22.23,91.69 60.01,120.03l195.93 146.95 195.93 -146.95c37.78,-28.34 60.01,-72.8 60.01,-120.03l0 -281.72 -255.94 -95.98 -255.94 95.98z"/>
  <path class="fil3" d="M308.89 0c-3.15,0 -6.3,0.56 -9.29,1.69l-282.42 105.9c-10.34,3.88 -17.18,13.76 -17.18,24.79l0 300.07c0,63.89 30.08,124.05 81.19,162.39l211.82 158.86c4.7,3.53 10.29,5.29 15.88,5.29l0 -59.57 -195.93 -146.95c-37.78,-28.34 -60.01,-72.8 -60.01,-120.03l0 -281.72 255.94 -95.98 0 -54.76z"/>
  <path class="fil4" d="M284.23 122.77c5.31,-13.62 20.66,-20.36 34.29,-15.05l176.51 68.84c10.16,3.96 16.85,13.76 16.85,24.67l0 111.2c0,14.62 -11.85,26.48 -26.48,26.48 -14.62,0 -26.48,-11.86 -26.48,-26.48l0 -93.11 -159.66 -62.27c-13.62,-5.31 -20.36,-20.67 -15.04,-34.29z"/>
  <path class="fil5" d="M308.9 105.9l0 54.9 -9.62 -3.75c-13.62,-5.31 -20.36,-20.67 -15.04,-34.29 4.08,-10.46 14.07,-16.86 24.67,-16.86z"/>
 </g>
</svg>
