<?xml version="1.0" encoding="UTF-8"?>
<!DOCTYPE svg PUBLIC "-//W3C//DTD SVG 1.1//EN" "http://www.w3.org/Graphics/SVG/1.1/DTD/svg11.dtd">
<!-- Creator: CorelDRAW 2021 (64-Bit) -->
<svg xmlns="http://www.w3.org/2000/svg" xml:space="preserve" width="43.8559mm" height="43.0721mm" version="1.1" style="shape-rendering:geometricPrecision; text-rendering:geometricPrecision; image-rendering:optimizeQuality; fill-rule:evenodd; clip-rule:evenodd"
viewBox="0 0 250.3 245.82"
 xmlns:xlink="http://www.w3.org/1999/xlink"
 xmlns:xodm="http://www.corel.com/coreldraw/odm/2003">
 <defs>
  <style type="text/css">
   <![CDATA[
    .str0 {stroke:#FFB700;stroke-width:12.08;stroke-linecap:round;stroke-linejoin:round;stroke-miterlimit:22.9256}
    .fil0 {fill:none}
    .fil1 {fill:#FFB700}
   ]]>
  </style>
 </defs>
 <g id="Capa_x0020_1">
  <metadata id="CorelCorpID_0Corel-Layer"/>
  <polyline class="fil0 str0" points="6.04,101.84 124.08,6.04 244.26,103.41 "/>
  <path class="fil1" d="M55.38 245.38c13.07,0 26.15,0.08 39.22,0.17l0.72 -71.21c5.56,-35.73 55.32,-29.46 58.47,0.3l0.18 71.19c14.37,-0.02 28.75,-0.14 43.12,-0.44 23.73,-0.5 28.81,-25.45 28.95,-36.04 0.51,-40.59 -0.84,-81.03 -0.84,-121.62 -33.66,-24.95 -67.31,-49.9 -100.97,-74.85 -33.82,26.06 -67.63,52.13 -101.45,78.19 0,38.87 0,77.74 0,116.62 -0.1,27.1 13.53,36.02 32.6,37.71z"/>
 </g>
</svg>
