<?xml version="1.0" encoding="UTF-8"?>
<!DOCTYPE svg PUBLIC "-//W3C//DTD SVG 1.1//EN" "http://www.w3.org/Graphics/SVG/1.1/DTD/svg11.dtd">
<!-- Creator: CorelDRAW 2021 (64-Bit) -->
<svg xmlns="http://www.w3.org/2000/svg" xml:space="preserve" width="13.2776mm" height="13.2543mm" version="1.1" style="shape-rendering:geometricPrecision; text-rendering:geometricPrecision; image-rendering:optimizeQuality; fill-rule:evenodd; clip-rule:evenodd"
viewBox="0 0 323.42 322.85"
 xmlns:xlink="http://www.w3.org/1999/xlink"
 xmlns:xodm="http://www.corel.com/coreldraw/odm/2003">
 <defs>
  <style type="text/css">
   <![CDATA[
    .fil4 {fill:#C41A1D;fill-rule:nonzero}
    .fil3 {fill:#E32C28;fill-rule:nonzero}
    .fil5 {fill:#FFA600;fill-rule:nonzero}
    .fil1 {fill:#FFB700;fill-rule:nonzero}
    .fil0 {fill:#FFD83D;fill-rule:nonzero}
    .fil2 {fill:#FFE78A;fill-rule:nonzero}
   ]]>
  </style>
 </defs>
 <g id="Capa_x0020_1">
  <metadata id="CorelCorpID_0Corel-Layer"/>
  <path class="fil0" d="M323.42 161.43c0,5.29 -0.26,10.56 -0.78,15.82 -0.52,5.26 -1.3,10.49 -2.33,15.67 -1.03,5.18 -2.32,10.31 -3.86,15.37 -1.54,5.06 -3.32,10.03 -5.35,14.92 -2.03,4.88 -4.29,9.66 -6.78,14.32 -2.5,4.66 -5.22,9.19 -8.16,13.59 -2.94,4.4 -6.09,8.64 -9.45,12.72 -3.36,4.09 -6.91,8 -10.66,11.74 -3.74,3.74 -7.66,7.28 -11.76,10.64 -4.09,3.35 -8.34,6.5 -12.75,9.44 -4.4,2.94 -8.94,5.65 -13.61,8.14 -4.67,2.49 -9.45,4.75 -14.35,6.77 -4.89,2.02 -9.87,3.8 -14.94,5.34 -5.07,1.53 -10.2,2.82 -15.39,3.85 -5.19,1.03 -10.43,1.8 -15.7,2.32 -5.27,0.52 -10.55,0.78 -15.85,0.78 -5.3,0 -10.58,-0.26 -15.85,-0.78 -5.27,-0.52 -10.5,-1.29 -15.7,-2.32 -5.19,-1.03 -10.33,-2.31 -15.39,-3.85 -5.07,-1.53 -10.05,-3.32 -14.94,-5.34 -4.89,-2.02 -9.68,-4.28 -14.34,-6.77 -4.67,-2.49 -9.21,-5.21 -13.61,-8.14 -4.4,-2.94 -8.65,-6.08 -12.75,-9.44 -4.09,-3.35 -8.01,-6.9 -11.76,-10.64 -3.74,-3.74 -7.3,-7.65 -10.66,-11.74 -3.36,-4.09 -6.51,-8.33 -9.45,-12.72 -2.94,-4.4 -5.66,-8.92 -8.16,-13.59 -2.5,-4.66 -4.76,-9.44 -6.79,-14.32 -2.03,-4.89 -3.81,-9.86 -5.34,-14.92 -1.54,-5.06 -2.82,-10.18 -3.86,-15.37 -1.03,-5.19 -1.81,-10.41 -2.33,-15.67 -0.52,-5.26 -0.78,-10.53 -0.78,-15.82 0,-5.29 0.26,-10.56 0.78,-15.82 0.52,-5.26 1.29,-10.49 2.33,-15.67 1.04,-5.19 2.32,-10.31 3.86,-15.37 1.54,-5.06 3.32,-10.03 5.34,-14.92 2.03,-4.88 4.29,-9.66 6.79,-14.32 2.5,-4.66 5.22,-9.19 8.16,-13.59 2.94,-4.4 6.09,-8.64 9.45,-12.72 3.36,-4.09 6.91,-8 10.66,-11.74 3.75,-3.74 7.67,-7.28 11.76,-10.64 4.09,-3.35 8.34,-6.5 12.75,-9.44 4.4,-2.94 8.94,-5.65 13.61,-8.15 4.67,-2.49 9.45,-4.75 14.34,-6.77 4.89,-2.02 9.87,-3.8 14.94,-5.34 5.07,-1.53 10.2,-2.82 15.39,-3.85 5.2,-1.03 10.43,-1.8 15.7,-2.32 5.27,-0.52 10.55,-0.78 15.85,-0.78 5.3,0 10.58,0.26 15.85,0.78 5.27,0.52 10.5,1.29 15.7,2.32 5.2,1.03 10.33,2.31 15.39,3.85 5.07,1.53 10.05,3.32 14.94,5.34 4.89,2.02 9.68,4.28 14.35,6.77 4.67,2.49 9.21,5.21 13.61,8.15 4.4,2.94 8.65,6.08 12.75,9.44 4.09,3.35 8.01,6.9 11.76,10.64 3.75,3.74 7.3,7.65 10.66,11.74 3.36,4.09 6.51,8.33 9.45,12.72 2.94,4.4 5.66,8.92 8.16,13.59 2.5,4.66 4.76,9.44 6.78,14.32 2.03,4.89 3.81,9.86 5.35,14.92 1.54,5.06 2.82,10.18 3.86,15.37 1.03,5.18 1.81,10.41 2.33,15.67 0.52,5.26 0.78,10.53 0.78,15.82z"/>
  <path class="fil1" d="M189.59 272.76c-6.41,0 -12.79,-0.38 -19.15,-1.14 -6.36,-0.76 -12.65,-1.89 -18.88,-3.39 -6.23,-1.51 -12.34,-3.37 -18.34,-5.6 -6,-2.23 -11.86,-4.81 -17.55,-7.73 -5.7,-2.93 -11.2,-6.17 -16.51,-9.75 -5.31,-3.58 -10.39,-7.46 -15.24,-11.64 -4.85,-4.18 -9.43,-8.63 -13.75,-13.35 -4.32,-4.72 -8.34,-9.68 -12.07,-14.89 -3.73,-5.2 -7.13,-10.6 -10.22,-16.21 -3.08,-5.6 -5.83,-11.37 -8.22,-17.3 -2.4,-5.93 -4.44,-11.98 -6.11,-18.15 -1.68,-6.17 -2.98,-12.42 -3.92,-18.75 -0.93,-6.33 -1.49,-12.69 -1.66,-19.08 -0.18,-6.39 0.02,-12.77 0.61,-19.14 0.58,-6.37 1.54,-12.68 2.87,-18.93 1.33,-6.26 3.04,-12.41 5.1,-18.46 -3.73,4.56 -7.21,9.31 -10.42,14.25 -3.21,4.94 -6.15,10.04 -8.8,15.29 -2.66,5.26 -5.01,10.65 -7.08,16.16 -2.06,5.51 -3.82,11.13 -5.27,16.84 -1.45,5.71 -2.58,11.48 -3.4,17.31 -0.82,5.83 -1.31,11.69 -1.48,17.58 -0.18,5.89 -0.03,11.77 0.45,17.63 0.47,5.87 1.26,11.7 2.37,17.48 1.11,5.79 2.53,11.49 4.27,17.12 1.73,5.63 3.77,11.14 6.11,16.55 2.34,5.41 4.97,10.67 7.88,15.79 2.92,5.12 6.1,10.06 9.56,14.83 3.46,4.77 7.17,9.34 11.13,13.7 3.96,4.37 8.15,8.5 12.56,12.41 4.41,3.91 9.02,7.56 13.84,10.97 4.82,3.4 9.8,6.54 14.96,9.4 5.16,2.86 10.45,5.43 15.89,7.71 5.44,2.28 10.99,4.26 16.64,5.93 5.65,1.67 11.39,3.04 17.19,4.08 5.8,1.05 11.65,1.78 17.53,2.19 5.88,0.41 11.77,0.5 17.67,0.26 5.89,-0.23 11.76,-0.79 17.59,-1.66 5.83,-0.87 11.6,-2.06 17.31,-3.57 5.7,-1.51 11.31,-3.32 16.81,-5.43 5.5,-2.11 10.88,-4.53 16.12,-7.23 5.24,-2.7 10.32,-5.69 15.23,-8.94 4.92,-3.26 9.64,-6.77 14.16,-10.55 4.53,-3.78 8.84,-7.78 12.92,-12.03 4.09,-4.24 7.94,-8.7 11.54,-13.36 3.6,-4.66 6.93,-9.51 10,-14.54 3.07,-5.03 5.86,-10.21 8.35,-15.54 2.5,-5.33 4.71,-10.79 6.61,-16.36 -7.58,9.27 -16.08,17.59 -25.51,24.97 -9.43,7.38 -19.56,13.63 -30.39,18.75 -10.83,5.13 -22.09,9 -33.78,11.62 -11.69,2.62 -23.53,3.92 -35.51,3.91z"/>
  <path class="fil2" d="M181.91 25.74c-1.62,1.84 -2.7,3.95 -3.26,6.33 -1.49,7.44 5.12,13.97 11.61,18.13 5.94,3.66 12.06,6.98 18.37,9.97l25.44 12.65c9.23,4.59 19.82,11.37 30.38,10.62 2.77,-0.04 5.39,-0.69 7.86,-1.94 9.09,-5.32 7.13,-17.11 3.2,-25 -4.62,-8.3 -10.96,-14.97 -19.01,-20.02 -16.95,-11.65 -57.43,-31.46 -74.59,-10.73z"/>
  <path class="fil2" d="M273.82 91.41c-0.85,1.8 -0.83,3.59 0.06,5.37 0.7,1.09 1.56,2.05 2.57,2.86 1.66,1.6 3.48,3.01 5.44,4.22 2.15,1.29 4.48,1.93 7,1.9 1.23,0 2.37,-0.34 3.4,-1.01 0.49,-0.38 0.89,-0.82 1.23,-1.34 0.87,-1.45 1.45,-3.01 1.74,-4.67 0.28,-1.67 0.25,-3.32 -0.09,-4.98 -0.34,-1.65 -0.98,-3.19 -1.9,-4.61 -0.92,-1.42 -2.08,-2.62 -3.45,-3.6 -6.44,-5.13 -13.61,0.27 -16,5.86z"/>
  <path class="fil3" d="M211.37 139.16c4.4,-0.18 7.74,1.62 10,5.39 2.27,3.77 2.29,7.55 0.07,11.35l-16.99 27.79 -54.4 89.06 9.33 -89.06 -47.33 0c-4.4,0.18 -7.74,-1.62 -10.01,-5.39 -2.27,-3.77 -2.29,-7.55 -0.07,-11.35l16.99 -27.79 54.4 -89.06 -9.33 89.06 47.33 0z"/>
  <path class="fil4" d="M112.05 166.99c-3.14,0.02 -5.86,-1.04 -8.14,-3.2l-1.93 3.15c-2.22,3.8 -2.2,7.58 0.07,11.35 2.27,3.77 5.6,5.57 10.01,5.39l45.58 0 1.75 -16.7 -47.33 0z"/>
  <path class="fil4" d="M219.51 142.36l-15.06 24.64 -52.29 85.61 -2.11 20.16 54.4 -89.06 16.99 -27.79c1.35,-2.2 1.85,-4.57 1.48,-7.12 -0.36,-2.55 -1.5,-4.69 -3.41,-6.43z"/>
  <path class="fil5" d="M112.05 183.69c-4.4,0.18 -7.74,-1.62 -10.01,-5.39 -2.27,-3.77 -2.29,-7.55 -0.07,-11.35l16.99 -27.79 36.32 -59.46 1.35 -12.9 -54.4 89.06 -16.99 27.79c-2.22,3.8 -2.2,7.58 0.07,11.35 2.27,3.77 5.6,5.57 10,5.39l47.33 0 -9.33 89.06 18.08 -29.6 7.98 -76.16 -47.33 0z"/>
 </g>
</svg>
