<?xml version="1.0" encoding="UTF-8"?>
<!DOCTYPE svg PUBLIC "-//W3C//DTD SVG 1.1//EN" "http://www.w3.org/Graphics/SVG/1.1/DTD/svg11.dtd">
<!-- Creator: CorelDRAW 2021 (64-Bit) -->
<svg xmlns="http://www.w3.org/2000/svg" xml:space="preserve" width="7.5314mm" height="7.5254mm" version="1.1" style="shape-rendering:geometricPrecision; text-rendering:geometricPrecision; image-rendering:optimizeQuality; fill-rule:evenodd; clip-rule:evenodd"
viewBox="0 0 144.3 144.19"
 xmlns:xlink="http://www.w3.org/1999/xlink"
 xmlns:xodm="http://www.corel.com/coreldraw/odm/2003">
 <defs>
  <style type="text/css">
   <![CDATA[
    .fil0 {fill:white;fill-rule:nonzero}
   ]]>
  </style>
 </defs>
 <g id="Capa_x0020_1">
  <metadata id="CorelCorpID_0Corel-Layer"/>
  <path class="fil0" d="M43.84 91.94c-2.78,-2.77 -7.25,-2.77 -9.87,0l-31.9 31.9c-1.38,1.39 -2.08,3.2 -2.08,4.99 0,1.79 0.69,3.56 2.08,4.87l8.48 8.47c1.36,1.38 3.02,1.99 4.85,2.01l0.09 0 0.09 0c1.82,-0.02 3.63,-0.79 4.85,-2.01l31.9 -31.89c2.77,-2.78 2.77,-7.25 0,-9.86l-8.48 -8.48z"/>
  <path class="fil0" d="M121.35 81.48c-7.87,7.85 -18.18,12.17 -29.27,12.17 -11.09,0 -21.42,-4.32 -29.29,-12.17 -16.18,-16.18 -16.18,-42.38 0,-58.41 16.18,-16.18 42.53,-16.18 58.56,-0.15 16.18,16.18 16.18,42.38 0,58.55l0 0.01zm7.7 -66.1c-20.33,-20.5 -53.47,-20.5 -73.8,0 -18.18,18.18 -20.34,47.14 -5.24,67.79l-1.69 1.69c-1.55,1.54 -1.55,4.16 0,5.7l5.55 5.55c1.54,1.54 4.16,1.54 5.7,0l1.69 -1.69c9.1,6.78 20.02,10.02 30.82,10.02 13.4,0 26.95,-5.09 36.97,-15.26 20.34,-20.5 20.34,-53.47 0,-73.8z"/>
 </g>
</svg>
