<?xml version="1.0" encoding="UTF-8"?>
<!DOCTYPE svg PUBLIC "-//W3C//DTD SVG 1.1//EN" "http://www.w3.org/Graphics/SVG/1.1/DTD/svg11.dtd">
<!-- Creator: CorelDRAW 2021 (64-Bit) -->
<svg xmlns="http://www.w3.org/2000/svg" xml:space="preserve" width="16.9333mm" height="9.4927mm" version="1.1" style="shape-rendering:geometricPrecision; text-rendering:geometricPrecision; image-rendering:optimizeQuality; fill-rule:evenodd; clip-rule:evenodd"
viewBox="0 0 464.7 260.51"
 xmlns:xlink="http://www.w3.org/1999/xlink"
 xmlns:xodm="http://www.corel.com/coreldraw/odm/2003">
 <defs>
  <style type="text/css">
   <![CDATA[
    .fil6 {fill:#FEFEFE}
    .fil7 {fill:#ED3237}
    .fil2 {fill:#70A44A}
    .fil1 {fill:#EC1A23}
    .fil3 {fill:#FEFEFE}
    .fil0 {fill:#FFD331}
    .fil4 {fill:url(#id0)}
    .fil5 {fill:url(#id1)}
   ]]>
  </style>
  <linearGradient id="id0" gradientUnits="userSpaceOnUse" x1="340.64" y1="190.67" x2="226.28" y2="122.51">
   <stop offset="0" style="stop-opacity:1; stop-color:black"/>
   <stop offset="0.290196" style="stop-opacity:1; stop-color:#3C3B3C"/>
   <stop offset="0.470588" style="stop-opacity:1; stop-color:#797778"/>
   <stop offset="0.54902" style="stop-opacity:1; stop-color:#B7B6B6"/>
   <stop offset="0.670588" style="stop-opacity:1; stop-color:whitesmoke"/>
   <stop offset="0.776471" style="stop-opacity:1; stop-color:#FAFAFA"/>
   <stop offset="1" style="stop-opacity:1; stop-color:white"/>
  </linearGradient>
  <linearGradient id="id1" gradientUnits="userSpaceOnUse" x1="248.56" y1="254.99" x2="215.93" y2="212.31">
   <stop offset="0" style="stop-opacity:1; stop-color:#373435"/>
   <stop offset="1" style="stop-opacity:1; stop-color:#FEFEFE"/>
  </linearGradient>
 </defs>
 <g id="Capa_x0020_1">
  <metadata id="CorelCorpID_0Corel-Layer"/>
  <path class="fil0" d="M-0 217.83l38.46 0c0,-21.63 7.9,-37.71 11.46,-52.61l-36.75 -11.85c-1.98,8.22 -5.4,16.89 -8.56,30.45 -1.98,8.82 -4.22,21.04 -4.61,30.97l0 1.04 0 1.04 0 0.96z"/>
  <path class="fil1" d="M414.78 163.59c0.4,4.22 11.46,31.94 11.46,51.79l38.46 0 0 -0.74 0 -0.74 0 -0.74 0 -0.74c-0.53,-15.19 -5.01,-32.23 -8.96,-46.38 -1.32,-4.89 -3.82,-10.22 -5.01,-14.82 -4.08,2.22 -30.16,9.34 -34.9,11.7 -0.13,0.07 -0.4,0.3 -0.53,0.3 -0.13,0.07 -0.4,0.22 -0.53,0.37z"/>
  <path class="fil0" d="M16.33 146.33c2.11,1.85 5.4,2.52 8.17,3.41 3.03,1.04 6.06,2 9.09,3.04 5.93,2 12.78,4.45 18.84,5.85 3.95,-8 6.98,-15.63 11.72,-23.49l14.36 -21.71 -30.03 -22.45c-7.77,5.85 -29.64,45.2 -32.14,55.35z"/>
  <path class="fil1" d="M385.28 112.69c7.11,9.41 23.44,32.75 26.21,44.31l36.88 -12.15c-4.87,-9.93 -9.09,-19.41 -14.49,-29.19 -5.01,-9.26 -11.86,-17.49 -17.39,-26.08 -5.4,3.93 -28.71,19.71 -31.22,23.12z"/>
  <path class="fil0" d="M52.56 85.28l30.82 22.53c0.13,-0.22 0.4,-0.67 0.4,-0.52 0,0.15 0.26,-0.37 0.4,-0.44 0.53,-0.59 0.66,-0.74 1.19,-1.41 6.59,-7.41 18.04,-18.6 25.55,-24.38 1.71,-1.26 3.16,-2.67 5.01,-4l5.27 -4 -22.26 -31.12c-4.34,3.19 -8.3,6.3 -12.51,9.48 -8.96,6.82 -28.85,25.34 -33.85,33.86z"/>
  <path class="fil1" d="M343.39 72.17c2.24,3.26 28.32,21.49 37.01,34.67l31.35 -22.67c-3.56,-5.33 -16.46,-18.45 -21.34,-22.74 -5.4,-4.89 -18.57,-16.38 -24.76,-19.49l-22.26 30.23z"/>
  <path class="fil2" d="M104.71 37.79c3.16,4.89 20.02,29.19 22.92,31.34 9.35,-7.04 34.38,-18.89 45.05,-21.49l-11.59 -36.9c-3.16,1.63 -10.8,3.78 -14.89,5.41 -4.74,1.93 -10.27,4.3 -14.75,6.59 -4.74,2.37 -8.83,4.59 -13.44,7.11 -4.48,2.52 -8.96,5.78 -13.3,7.93z"/>
  <path class="fil2" d="M291.76 47.57c17.78,4.3 41.1,19.64 45.31,20.67 2.24,-1.48 21.47,-28.01 22.13,-30.45 -2.63,-3.56 -20.81,-12.45 -25.95,-15.04 -12.78,-6.45 -21.47,-8.22 -29.77,-12.08l-11.72 36.9z"/>
  <path class="fil2" d="M235.64 37.79c3.82,1.78 8.69,0.44 13.04,0.96 4.08,0.44 8.69,1.04 13.04,1.63l23.84 4.82 11.33 -35.86c-4.48,-3.26 -39.65,-8.97 -49,-9.34l-0.79 0 -11.46 0 0 37.79z"/>
  <path class="fil2" d="M167.94 9.26l11.46 35.86c3.42,0 7.64,-1.56 11.33,-2.3 11.59,-2.37 15.28,-2.3 24.76,-3.85 4.08,-0.67 9.75,0.59 13.57,-1.19l0 -37.79 -1.19 0c-13.3,0.22 -52.69,3.85 -59.93,9.26z"/>
  <path class="fil3" d="M225.9 235.91c-2.37,-9.04 10.93,-12.45 13.17,-4 2.37,9.11 -10.93,12.3 -13.17,4zm-14.09 1.26c0.92,11.11 9.88,13.26 16.99,17.56 9.75,-0.59 16.47,-1.11 21.6,-10.52 2.5,-4.37 3.42,-9.04 2.63,-14.08 -0.92,-5.78 -4.08,-7.63 -5.4,-11.56 -5.01,-1.93 -6.45,-5.11 -12.78,-5.48l-5.93 0.15c-6.45,3.11 -7.11,1.78 -12.51,7.48 -4.35,4.74 -4.61,10.23 -4.61,16.45z"/>
  <path class="fil4" d="M261.99 235.09c0.06,-0.05 81.09,-147.8 83.25,-157l-123.55 128.1c17.37,-6.56 40.89,2.53 40.31,28.9z"/>
  <path class="fil3" d="M252.37 197.38l73.37 -94.1 -84.17 90.91c0,0 10.01,3.11 10.8,3.19z"/>
  <path class="fil1" d="M225.9 235.91c2.24,8.3 15.54,5.11 13.17,-4 -2.24,-8.45 -15.54,-5.04 -13.17,4z"/>
  <circle class="fil5" cx="232.25" cy="233.65" r="26.86"/>
  <circle class="fil6" cx="232.25" cy="233.65" r="19.28"/>
  <circle class="fil7" cx="232.25" cy="233.65" r="6.48"/>
 </g>
</svg>
